<?xml version="1.0" standalone="no"?>
<!DOCTYPE svg PUBLIC "-//W3C//DTD SVG 20010904//EN"
 "http://www.w3.org/TR/2001/REC-SVG-20010904/DTD/svg10.dtd">
<svg version="1.0" xmlns="http://www.w3.org/2000/svg"
 width="1600.000000pt" height="1600.000000pt" viewBox="0 0 1600.000000 1600.000000"
 preserveAspectRatio="xMidYMid meet">

<g transform="translate(0.000000,1600.000000) scale(0.100000,-0.100000)"
fill="#000000" stroke="none">
<path d="M8670 10078 c0 -4824 1 -4647 -46 -4861 -163 -738 -737 -1305 -1476
-1457 -408 -83 -842 -24 -1221 166 -561 281 -948 831 -1027 1459 -16 125 -13
385 5 503 67 417 245 772 535 1062 441 440 1052 630 1690 524 90 -15 191 -37
225 -50 13 -6 15 119 15 1179 l0 1185 -42 6 c-264 36 -731 42 -993 12 -782
-89 -1475 -361 -2088 -820 -308 -230 -632 -557 -860 -865 -369 -500 -625
-1079 -746 -1686 -56 -280 -75 -492 -75 -835 0 -325 19 -523 79 -825 194 -962
725 -1833 1495 -2451 656 -525 1468 -847 2300 -912 219 -17 693 -6 865 19 713
106 1255 308 1805 674 662 441 1200 1076 1514 1787 181 412 280 775 343 1258
16 125 18 315 20 2480 2 1290 4 2432 6 2538 l2 193 120 -91 c401 -306 860
-555 1340 -725 319 -113 732 -209 1055 -244 52 -6 115 -13 140 -16 25 -2 134
-8 243 -11 l197 -7 -2 1119 -3 1119 -50 1 c-311 9 -560 47 -833 129 -1134 339
-1979 1297 -2171 2465 -11 69 -23 168 -27 220 -4 52 -8 102 -10 110 -1 8 -3
50 -3 93 l-1 77 -1160 0 -1160 0 0 -4522z m1969 4050 c106 -789 502 -1546
1091 -2085 252 -231 519 -413 825 -563 339 -167 709 -280 1050 -323 l100 -13
3 -738 2 -739 -82 7 c-226 17 -553 82 -823 161 -367 109 -702 255 -1033 452
-254 151 -370 238 -937 701 l-220 180 -6 -2927 c-3 -1609 -9 -2946 -12 -2971
-4 -25 -15 -99 -23 -165 -88 -669 -357 -1309 -776 -1846 -522 -670 -1260
-1153 -2077 -1359 -186 -47 -311 -69 -526 -96 -151 -19 -544 -25 -715 -12
-510 40 -1013 183 -1458 415 -376 196 -646 395 -953 702 -354 355 -609 722
-795 1147 -194 443 -292 848 -324 1339 -16 241 -6 474 31 744 212 1544 1346
2810 2859 3191 281 71 504 101 815 109 132 3 261 5 288 3 l47 -3 0 -779 0
-779 -157 3 c-173 5 -287 -4 -463 -35 -662 -115 -1256 -541 -1583 -1134 -311
-565 -369 -1238 -158 -1847 244 -703 824 -1247 1538 -1443 222 -61 351 -78
598 -79 242 -1 348 11 560 63 854 209 1519 912 1684 1781 11 58 22 134 26 170
3 36 8 83 10 105 2 22 4 2001 4 4398 l1 4357 789 0 788 0 12 -92z"/>
</g>
</svg>
